
<svg height="1511pt" viewBox="0.00 0.00 400.93 1511.00" width="401pt" xmlns="http://www.w3.org/2000/svg" xmlns:xlink="http://www.w3.org/1999/xlink">
<g class="graph" id="graph0" transform="scale(1 1) rotate(0) translate(4 1507)">
<title>G</title>
<polygon fill="#ffffff" points="-4,4 -4,-1507 396.9277,-1507 396.9277,4 -4,4" stroke="transparent"/>
<!-- 4850363088 -->
<g class="node" id="node1">
<title>4850363088</title>
<polygon fill="none" points="41.624,-1458.5 41.624,-1502.5 351.3037,-1502.5 351.3037,-1458.5 41.624,-1458.5" stroke="#000000"/>
<text fill="#000000" font-family="Times,serif" font-size="14.00" text-anchor="middle" x="105.8052" y="-1476.3">input_1: InputLayer</text>
<polyline fill="none" points="169.9863,-1458.5 169.9863,-1502.5 " stroke="#000000"/>
<text fill="#000000" font-family="Times,serif" font-size="14.00" text-anchor="middle" x="197.8208" y="-1487.3">input:</text>
<polyline fill="none" points="169.9863,-1480.5 225.6553,-1480.5 " stroke="#000000"/>
<text fill="#000000" font-family="Times,serif" font-size="14.00" text-anchor="middle" x="197.8208" y="-1465.3">output:</text>
<polyline fill="none" points="225.6553,-1458.5 225.6553,-1502.5 " stroke="#000000"/>
<text fill="#000000" font-family="Times,serif" font-size="14.00" text-anchor="middle" x="288.4795" y="-1487.3">(None, 160, 320, 3)</text>
<polyline fill="none" points="225.6553,-1480.5 351.3037,-1480.5 " stroke="#000000"/>
<text fill="#000000" font-family="Times,serif" font-size="14.00" text-anchor="middle" x="288.4795" y="-1465.3">(None, 160, 320, 3)</text>
</g>
<!-- 4850363856 -->
<g class="node" id="node2">
<title>4850363856</title>
<polygon fill="none" points="20.2275,-1377.5 20.2275,-1421.5 372.7002,-1421.5 372.7002,-1377.5 20.2275,-1377.5" stroke="#000000"/>
<text fill="#000000" font-family="Times,serif" font-size="14.00" text-anchor="middle" x="105.8052" y="-1395.3">cropping2d_1: Cropping2D</text>
<polyline fill="none" points="191.3828,-1377.5 191.3828,-1421.5 " stroke="#000000"/>
<text fill="#000000" font-family="Times,serif" font-size="14.00" text-anchor="middle" x="219.2173" y="-1406.3">input:</text>
<polyline fill="none" points="191.3828,-1399.5 247.0518,-1399.5 " stroke="#000000"/>
<text fill="#000000" font-family="Times,serif" font-size="14.00" text-anchor="middle" x="219.2173" y="-1384.3">output:</text>
<polyline fill="none" points="247.0518,-1377.5 247.0518,-1421.5 " stroke="#000000"/>
<text fill="#000000" font-family="Times,serif" font-size="14.00" text-anchor="middle" x="309.876" y="-1406.3">(None, 160, 320, 3)</text>
<polyline fill="none" points="247.0518,-1399.5 372.7002,-1399.5 " stroke="#000000"/>
<text fill="#000000" font-family="Times,serif" font-size="14.00" text-anchor="middle" x="309.876" y="-1384.3">(None, 90, 320, 3)</text>
</g>
<!-- 4850363088&#45;&gt;4850363856 -->
<g class="edge" id="edge1">
<title>4850363088-&gt;4850363856</title>
<path d="M196.4639,-1458.3664C196.4639,-1450.1516 196.4639,-1440.6579 196.4639,-1431.7252" fill="none" stroke="#000000"/>
<polygon fill="#000000" points="199.964,-1431.6068 196.4639,-1421.6068 192.964,-1431.6069 199.964,-1431.6068" stroke="#000000"/>
</g>
<!-- 4850405456 -->
<g class="node" id="node3">
<title>4850405456</title>
<polygon fill="none" points="47.0723,-1296.5 47.0723,-1340.5 345.8555,-1340.5 345.8555,-1296.5 47.0723,-1296.5" stroke="#000000"/>
<text fill="#000000" font-family="Times,serif" font-size="14.00" text-anchor="middle" x="109.3052" y="-1314.3">lambda_1: Lambda</text>
<polyline fill="none" points="171.5381,-1296.5 171.5381,-1340.5 " stroke="#000000"/>
<text fill="#000000" font-family="Times,serif" font-size="14.00" text-anchor="middle" x="199.3726" y="-1325.3">input:</text>
<polyline fill="none" points="171.5381,-1318.5 227.207,-1318.5 " stroke="#000000"/>
<text fill="#000000" font-family="Times,serif" font-size="14.00" text-anchor="middle" x="199.3726" y="-1303.3">output:</text>
<polyline fill="none" points="227.207,-1296.5 227.207,-1340.5 " stroke="#000000"/>
<text fill="#000000" font-family="Times,serif" font-size="14.00" text-anchor="middle" x="286.5313" y="-1325.3">(None, 90, 320, 3)</text>
<polyline fill="none" points="227.207,-1318.5 345.8555,-1318.5 " stroke="#000000"/>
<text fill="#000000" font-family="Times,serif" font-size="14.00" text-anchor="middle" x="286.5313" y="-1303.3">(None, 90, 320, 3)</text>
</g>
<!-- 4850363856&#45;&gt;4850405456 -->
<g class="edge" id="edge2">
<title>4850363856-&gt;4850405456</title>
<path d="M196.4639,-1377.3664C196.4639,-1369.1516 196.4639,-1359.6579 196.4639,-1350.7252" fill="none" stroke="#000000"/>
<polygon fill="#000000" points="199.964,-1350.6068 196.4639,-1340.6068 192.964,-1350.6069 199.964,-1350.6068" stroke="#000000"/>
</g>
<!-- 4850407440 -->
<g class="node" id="node4">
<title>4850407440</title>
<polygon fill="none" points="42.7793,-1215.5 42.7793,-1259.5 350.1484,-1259.5 350.1484,-1215.5 42.7793,-1215.5" stroke="#000000"/>
<text fill="#000000" font-family="Times,serif" font-size="14.00" text-anchor="middle" x="105.8052" y="-1233.3">conv2d_1: Conv2D</text>
<polyline fill="none" points="168.8311,-1215.5 168.8311,-1259.5 " stroke="#000000"/>
<text fill="#000000" font-family="Times,serif" font-size="14.00" text-anchor="middle" x="196.6655" y="-1244.3">input:</text>
<polyline fill="none" points="168.8311,-1237.5 224.5,-1237.5 " stroke="#000000"/>
<text fill="#000000" font-family="Times,serif" font-size="14.00" text-anchor="middle" x="196.6655" y="-1222.3">output:</text>
<polyline fill="none" points="224.5,-1215.5 224.5,-1259.5 " stroke="#000000"/>
<text fill="#000000" font-family="Times,serif" font-size="14.00" text-anchor="middle" x="287.3242" y="-1244.3">(None, 90, 320, 3)</text>
<polyline fill="none" points="224.5,-1237.5 350.1484,-1237.5 " stroke="#000000"/>
<text fill="#000000" font-family="Times,serif" font-size="14.00" text-anchor="middle" x="287.3242" y="-1222.3">(None, 88, 318, 32)</text>
</g>
<!-- 4850405456&#45;&gt;4850407440 -->
<g class="edge" id="edge3">
<title>4850405456-&gt;4850407440</title>
<path d="M196.4639,-1296.3664C196.4639,-1288.1516 196.4639,-1278.6579 196.4639,-1269.7252" fill="none" stroke="#000000"/>
<polygon fill="#000000" points="199.964,-1269.6068 196.4639,-1259.6068 192.964,-1269.6069 199.964,-1269.6068" stroke="#000000"/>
</g>
<!-- 4850405776 -->
<g class="node" id="node5">
<title>4850405776</title>
<polygon fill="none" points="42.7793,-1134.5 42.7793,-1178.5 350.1484,-1178.5 350.1484,-1134.5 42.7793,-1134.5" stroke="#000000"/>
<text fill="#000000" font-family="Times,serif" font-size="14.00" text-anchor="middle" x="105.8052" y="-1152.3">conv2d_2: Conv2D</text>
<polyline fill="none" points="168.8311,-1134.5 168.8311,-1178.5 " stroke="#000000"/>
<text fill="#000000" font-family="Times,serif" font-size="14.00" text-anchor="middle" x="196.6655" y="-1163.3">input:</text>
<polyline fill="none" points="168.8311,-1156.5 224.5,-1156.5 " stroke="#000000"/>
<text fill="#000000" font-family="Times,serif" font-size="14.00" text-anchor="middle" x="196.6655" y="-1141.3">output:</text>
<polyline fill="none" points="224.5,-1134.5 224.5,-1178.5 " stroke="#000000"/>
<text fill="#000000" font-family="Times,serif" font-size="14.00" text-anchor="middle" x="287.3242" y="-1163.3">(None, 88, 318, 32)</text>
<polyline fill="none" points="224.5,-1156.5 350.1484,-1156.5 " stroke="#000000"/>
<text fill="#000000" font-family="Times,serif" font-size="14.00" text-anchor="middle" x="287.3242" y="-1141.3">(None, 86, 316, 32)</text>
</g>
<!-- 4850407440&#45;&gt;4850405776 -->
<g class="edge" id="edge4">
<title>4850407440-&gt;4850405776</title>
<path d="M196.4639,-1215.3664C196.4639,-1207.1516 196.4639,-1197.6579 196.4639,-1188.7252" fill="none" stroke="#000000"/>
<polygon fill="#000000" points="199.964,-1188.6068 196.4639,-1178.6068 192.964,-1188.6069 199.964,-1188.6068" stroke="#000000"/>
</g>
<!-- 4850408912 -->
<g class="node" id="node6">
<title>4850408912</title>
<polygon fill="none" points="0,-1053.5 0,-1097.5 392.9277,-1097.5 392.9277,-1053.5 0,-1053.5" stroke="#000000"/>
<text fill="#000000" font-family="Times,serif" font-size="14.00" text-anchor="middle" x="105.8052" y="-1071.3">max_pooling2d_1: MaxPooling2D</text>
<polyline fill="none" points="211.6104,-1053.5 211.6104,-1097.5 " stroke="#000000"/>
<text fill="#000000" font-family="Times,serif" font-size="14.00" text-anchor="middle" x="239.4448" y="-1082.3">input:</text>
<polyline fill="none" points="211.6104,-1075.5 267.2793,-1075.5 " stroke="#000000"/>
<text fill="#000000" font-family="Times,serif" font-size="14.00" text-anchor="middle" x="239.4448" y="-1060.3">output:</text>
<polyline fill="none" points="267.2793,-1053.5 267.2793,-1097.5 " stroke="#000000"/>
<text fill="#000000" font-family="Times,serif" font-size="14.00" text-anchor="middle" x="330.1035" y="-1082.3">(None, 86, 316, 32)</text>
<polyline fill="none" points="267.2793,-1075.5 392.9277,-1075.5 " stroke="#000000"/>
<text fill="#000000" font-family="Times,serif" font-size="14.00" text-anchor="middle" x="330.1035" y="-1060.3">(None, 43, 158, 32)</text>
</g>
<!-- 4850405776&#45;&gt;4850408912 -->
<g class="edge" id="edge5">
<title>4850405776-&gt;4850408912</title>
<path d="M196.4639,-1134.3664C196.4639,-1126.1516 196.4639,-1116.6579 196.4639,-1107.7252" fill="none" stroke="#000000"/>
<polygon fill="#000000" points="199.964,-1107.6068 196.4639,-1097.6068 192.964,-1107.6069 199.964,-1107.6068" stroke="#000000"/>
</g>
<!-- 4851009488 -->
<g class="node" id="node7">
<title>4851009488</title>
<polygon fill="none" points="42.7793,-972.5 42.7793,-1016.5 350.1484,-1016.5 350.1484,-972.5 42.7793,-972.5" stroke="#000000"/>
<text fill="#000000" font-family="Times,serif" font-size="14.00" text-anchor="middle" x="105.8052" y="-990.3">conv2d_3: Conv2D</text>
<polyline fill="none" points="168.8311,-972.5 168.8311,-1016.5 " stroke="#000000"/>
<text fill="#000000" font-family="Times,serif" font-size="14.00" text-anchor="middle" x="196.6655" y="-1001.3">input:</text>
<polyline fill="none" points="168.8311,-994.5 224.5,-994.5 " stroke="#000000"/>
<text fill="#000000" font-family="Times,serif" font-size="14.00" text-anchor="middle" x="196.6655" y="-979.3">output:</text>
<polyline fill="none" points="224.5,-972.5 224.5,-1016.5 " stroke="#000000"/>
<text fill="#000000" font-family="Times,serif" font-size="14.00" text-anchor="middle" x="287.3242" y="-1001.3">(None, 43, 158, 32)</text>
<polyline fill="none" points="224.5,-994.5 350.1484,-994.5 " stroke="#000000"/>
<text fill="#000000" font-family="Times,serif" font-size="14.00" text-anchor="middle" x="287.3242" y="-979.3">(None, 41, 156, 32)</text>
</g>
<!-- 4850408912&#45;&gt;4851009488 -->
<g class="edge" id="edge6">
<title>4850408912-&gt;4851009488</title>
<path d="M196.4639,-1053.3664C196.4639,-1045.1516 196.4639,-1035.6579 196.4639,-1026.7252" fill="none" stroke="#000000"/>
<polygon fill="#000000" points="199.964,-1026.6068 196.4639,-1016.6068 192.964,-1026.6069 199.964,-1026.6068" stroke="#000000"/>
</g>
<!-- 4851009680 -->
<g class="node" id="node8">
<title>4851009680</title>
<polygon fill="none" points="42.7793,-891.5 42.7793,-935.5 350.1484,-935.5 350.1484,-891.5 42.7793,-891.5" stroke="#000000"/>
<text fill="#000000" font-family="Times,serif" font-size="14.00" text-anchor="middle" x="105.8052" y="-909.3">conv2d_4: Conv2D</text>
<polyline fill="none" points="168.8311,-891.5 168.8311,-935.5 " stroke="#000000"/>
<text fill="#000000" font-family="Times,serif" font-size="14.00" text-anchor="middle" x="196.6655" y="-920.3">input:</text>
<polyline fill="none" points="168.8311,-913.5 224.5,-913.5 " stroke="#000000"/>
<text fill="#000000" font-family="Times,serif" font-size="14.00" text-anchor="middle" x="196.6655" y="-898.3">output:</text>
<polyline fill="none" points="224.5,-891.5 224.5,-935.5 " stroke="#000000"/>
<text fill="#000000" font-family="Times,serif" font-size="14.00" text-anchor="middle" x="287.3242" y="-920.3">(None, 41, 156, 32)</text>
<polyline fill="none" points="224.5,-913.5 350.1484,-913.5 " stroke="#000000"/>
<text fill="#000000" font-family="Times,serif" font-size="14.00" text-anchor="middle" x="287.3242" y="-898.3">(None, 39, 154, 32)</text>
</g>
<!-- 4851009488&#45;&gt;4851009680 -->
<g class="edge" id="edge7">
<title>4851009488-&gt;4851009680</title>
<path d="M196.4639,-972.3664C196.4639,-964.1516 196.4639,-954.6579 196.4639,-945.7252" fill="none" stroke="#000000"/>
<polygon fill="#000000" points="199.964,-945.6068 196.4639,-935.6068 192.964,-945.6069 199.964,-945.6068" stroke="#000000"/>
</g>
<!-- 4850625040 -->
<g class="node" id="node9">
<title>4850625040</title>
<polygon fill="none" points="0,-810.5 0,-854.5 392.9277,-854.5 392.9277,-810.5 0,-810.5" stroke="#000000"/>
<text fill="#000000" font-family="Times,serif" font-size="14.00" text-anchor="middle" x="105.8052" y="-828.3">max_pooling2d_2: MaxPooling2D</text>
<polyline fill="none" points="211.6104,-810.5 211.6104,-854.5 " stroke="#000000"/>
<text fill="#000000" font-family="Times,serif" font-size="14.00" text-anchor="middle" x="239.4448" y="-839.3">input:</text>
<polyline fill="none" points="211.6104,-832.5 267.2793,-832.5 " stroke="#000000"/>
<text fill="#000000" font-family="Times,serif" font-size="14.00" text-anchor="middle" x="239.4448" y="-817.3">output:</text>
<polyline fill="none" points="267.2793,-810.5 267.2793,-854.5 " stroke="#000000"/>
<text fill="#000000" font-family="Times,serif" font-size="14.00" text-anchor="middle" x="330.1035" y="-839.3">(None, 39, 154, 32)</text>
<polyline fill="none" points="267.2793,-832.5 392.9277,-832.5 " stroke="#000000"/>
<text fill="#000000" font-family="Times,serif" font-size="14.00" text-anchor="middle" x="330.1035" y="-817.3">(None, 19, 77, 32)</text>
</g>
<!-- 4851009680&#45;&gt;4850625040 -->
<g class="edge" id="edge8">
<title>4851009680-&gt;4850625040</title>
<path d="M196.4639,-891.3664C196.4639,-883.1516 196.4639,-873.6579 196.4639,-864.7252" fill="none" stroke="#000000"/>
<polygon fill="#000000" points="199.964,-864.6068 196.4639,-854.6068 192.964,-864.6069 199.964,-864.6068" stroke="#000000"/>
</g>
<!-- 4854357072 -->
<g class="node" id="node10">
<title>4854357072</title>
<polygon fill="none" points="46.2793,-729.5 46.2793,-773.5 346.6484,-773.5 346.6484,-729.5 46.2793,-729.5" stroke="#000000"/>
<text fill="#000000" font-family="Times,serif" font-size="14.00" text-anchor="middle" x="109.3052" y="-747.3">conv2d_5: Conv2D</text>
<polyline fill="none" points="172.3311,-729.5 172.3311,-773.5 " stroke="#000000"/>
<text fill="#000000" font-family="Times,serif" font-size="14.00" text-anchor="middle" x="200.1655" y="-758.3">input:</text>
<polyline fill="none" points="172.3311,-751.5 228,-751.5 " stroke="#000000"/>
<text fill="#000000" font-family="Times,serif" font-size="14.00" text-anchor="middle" x="200.1655" y="-736.3">output:</text>
<polyline fill="none" points="228,-729.5 228,-773.5 " stroke="#000000"/>
<text fill="#000000" font-family="Times,serif" font-size="14.00" text-anchor="middle" x="287.3242" y="-758.3">(None, 19, 77, 32)</text>
<polyline fill="none" points="228,-751.5 346.6484,-751.5 " stroke="#000000"/>
<text fill="#000000" font-family="Times,serif" font-size="14.00" text-anchor="middle" x="287.3242" y="-736.3">(None, 17, 75, 32)</text>
</g>
<!-- 4850625040&#45;&gt;4854357072 -->
<g class="edge" id="edge9">
<title>4850625040-&gt;4854357072</title>
<path d="M196.4639,-810.3664C196.4639,-802.1516 196.4639,-792.6579 196.4639,-783.7252" fill="none" stroke="#000000"/>
<polygon fill="#000000" points="199.964,-783.6068 196.4639,-773.6068 192.964,-783.6069 199.964,-783.6068" stroke="#000000"/>
</g>
<!-- 4854426640 -->
<g class="node" id="node11">
<title>4854426640</title>
<polygon fill="none" points="46.2793,-648.5 46.2793,-692.5 346.6484,-692.5 346.6484,-648.5 46.2793,-648.5" stroke="#000000"/>
<text fill="#000000" font-family="Times,serif" font-size="14.00" text-anchor="middle" x="109.3052" y="-666.3">conv2d_6: Conv2D</text>
<polyline fill="none" points="172.3311,-648.5 172.3311,-692.5 " stroke="#000000"/>
<text fill="#000000" font-family="Times,serif" font-size="14.00" text-anchor="middle" x="200.1655" y="-677.3">input:</text>
<polyline fill="none" points="172.3311,-670.5 228,-670.5 " stroke="#000000"/>
<text fill="#000000" font-family="Times,serif" font-size="14.00" text-anchor="middle" x="200.1655" y="-655.3">output:</text>
<polyline fill="none" points="228,-648.5 228,-692.5 " stroke="#000000"/>
<text fill="#000000" font-family="Times,serif" font-size="14.00" text-anchor="middle" x="287.3242" y="-677.3">(None, 17, 75, 32)</text>
<polyline fill="none" points="228,-670.5 346.6484,-670.5 " stroke="#000000"/>
<text fill="#000000" font-family="Times,serif" font-size="14.00" text-anchor="middle" x="287.3242" y="-655.3">(None, 15, 73, 32)</text>
</g>
<!-- 4854357072&#45;&gt;4854426640 -->
<g class="edge" id="edge10">
<title>4854357072-&gt;4854426640</title>
<path d="M196.4639,-729.3664C196.4639,-721.1516 196.4639,-711.6579 196.4639,-702.7252" fill="none" stroke="#000000"/>
<polygon fill="#000000" points="199.964,-702.6068 196.4639,-692.6068 192.964,-702.6069 199.964,-702.6068" stroke="#000000"/>
</g>
<!-- 4854299280 -->
<g class="node" id="node12">
<title>4854299280</title>
<polygon fill="none" points="3.5,-567.5 3.5,-611.5 389.4277,-611.5 389.4277,-567.5 3.5,-567.5" stroke="#000000"/>
<text fill="#000000" font-family="Times,serif" font-size="14.00" text-anchor="middle" x="109.3052" y="-585.3">max_pooling2d_3: MaxPooling2D</text>
<polyline fill="none" points="215.1104,-567.5 215.1104,-611.5 " stroke="#000000"/>
<text fill="#000000" font-family="Times,serif" font-size="14.00" text-anchor="middle" x="242.9448" y="-596.3">input:</text>
<polyline fill="none" points="215.1104,-589.5 270.7793,-589.5 " stroke="#000000"/>
<text fill="#000000" font-family="Times,serif" font-size="14.00" text-anchor="middle" x="242.9448" y="-574.3">output:</text>
<polyline fill="none" points="270.7793,-567.5 270.7793,-611.5 " stroke="#000000"/>
<text fill="#000000" font-family="Times,serif" font-size="14.00" text-anchor="middle" x="330.1035" y="-596.3">(None, 15, 73, 32)</text>
<polyline fill="none" points="270.7793,-589.5 389.4277,-589.5 " stroke="#000000"/>
<text fill="#000000" font-family="Times,serif" font-size="14.00" text-anchor="middle" x="330.1035" y="-574.3">(None, 7, 36, 32)</text>
</g>
<!-- 4854426640&#45;&gt;4854299280 -->
<g class="edge" id="edge11">
<title>4854426640-&gt;4854299280</title>
<path d="M196.4639,-648.3664C196.4639,-640.1516 196.4639,-630.6579 196.4639,-621.7252" fill="none" stroke="#000000"/>
<polygon fill="#000000" points="199.964,-621.6068 196.4639,-611.6068 192.964,-621.6069 199.964,-621.6068" stroke="#000000"/>
</g>
<!-- 4854853328 -->
<g class="node" id="node13">
<title>4854853328</title>
<polygon fill="none" points="49.7793,-486.5 49.7793,-530.5 343.1484,-530.5 343.1484,-486.5 49.7793,-486.5" stroke="#000000"/>
<text fill="#000000" font-family="Times,serif" font-size="14.00" text-anchor="middle" x="112.8052" y="-504.3">conv2d_7: Conv2D</text>
<polyline fill="none" points="175.8311,-486.5 175.8311,-530.5 " stroke="#000000"/>
<text fill="#000000" font-family="Times,serif" font-size="14.00" text-anchor="middle" x="203.6655" y="-515.3">input:</text>
<polyline fill="none" points="175.8311,-508.5 231.5,-508.5 " stroke="#000000"/>
<text fill="#000000" font-family="Times,serif" font-size="14.00" text-anchor="middle" x="203.6655" y="-493.3">output:</text>
<polyline fill="none" points="231.5,-486.5 231.5,-530.5 " stroke="#000000"/>
<text fill="#000000" font-family="Times,serif" font-size="14.00" text-anchor="middle" x="287.3242" y="-515.3">(None, 7, 36, 32)</text>
<polyline fill="none" points="231.5,-508.5 343.1484,-508.5 " stroke="#000000"/>
<text fill="#000000" font-family="Times,serif" font-size="14.00" text-anchor="middle" x="287.3242" y="-493.3">(None, 5, 34, 32)</text>
</g>
<!-- 4854299280&#45;&gt;4854853328 -->
<g class="edge" id="edge12">
<title>4854299280-&gt;4854853328</title>
<path d="M196.4639,-567.3664C196.4639,-559.1516 196.4639,-549.6579 196.4639,-540.7252" fill="none" stroke="#000000"/>
<polygon fill="#000000" points="199.964,-540.6068 196.4639,-530.6068 192.964,-540.6069 199.964,-540.6068" stroke="#000000"/>
</g>
<!-- 4854925904 -->
<g class="node" id="node14">
<title>4854925904</title>
<polygon fill="none" points="49.7793,-405.5 49.7793,-449.5 343.1484,-449.5 343.1484,-405.5 49.7793,-405.5" stroke="#000000"/>
<text fill="#000000" font-family="Times,serif" font-size="14.00" text-anchor="middle" x="112.8052" y="-423.3">conv2d_8: Conv2D</text>
<polyline fill="none" points="175.8311,-405.5 175.8311,-449.5 " stroke="#000000"/>
<text fill="#000000" font-family="Times,serif" font-size="14.00" text-anchor="middle" x="203.6655" y="-434.3">input:</text>
<polyline fill="none" points="175.8311,-427.5 231.5,-427.5 " stroke="#000000"/>
<text fill="#000000" font-family="Times,serif" font-size="14.00" text-anchor="middle" x="203.6655" y="-412.3">output:</text>
<polyline fill="none" points="231.5,-405.5 231.5,-449.5 " stroke="#000000"/>
<text fill="#000000" font-family="Times,serif" font-size="14.00" text-anchor="middle" x="287.3242" y="-434.3">(None, 5, 34, 32)</text>
<polyline fill="none" points="231.5,-427.5 343.1484,-427.5 " stroke="#000000"/>
<text fill="#000000" font-family="Times,serif" font-size="14.00" text-anchor="middle" x="287.3242" y="-412.3">(None, 3, 32, 32)</text>
</g>
<!-- 4854853328&#45;&gt;4854925904 -->
<g class="edge" id="edge13">
<title>4854853328-&gt;4854925904</title>
<path d="M196.4639,-486.3664C196.4639,-478.1516 196.4639,-468.6579 196.4639,-459.7252" fill="none" stroke="#000000"/>
<polygon fill="#000000" points="199.964,-459.6068 196.4639,-449.6068 192.964,-459.6069 199.964,-459.6068" stroke="#000000"/>
</g>
<!-- 4855178320 -->
<g class="node" id="node15">
<title>4855178320</title>
<polygon fill="none" points="7,-324.5 7,-368.5 385.9277,-368.5 385.9277,-324.5 7,-324.5" stroke="#000000"/>
<text fill="#000000" font-family="Times,serif" font-size="14.00" text-anchor="middle" x="112.8052" y="-342.3">max_pooling2d_4: MaxPooling2D</text>
<polyline fill="none" points="218.6104,-324.5 218.6104,-368.5 " stroke="#000000"/>
<text fill="#000000" font-family="Times,serif" font-size="14.00" text-anchor="middle" x="246.4448" y="-353.3">input:</text>
<polyline fill="none" points="218.6104,-346.5 274.2793,-346.5 " stroke="#000000"/>
<text fill="#000000" font-family="Times,serif" font-size="14.00" text-anchor="middle" x="246.4448" y="-331.3">output:</text>
<polyline fill="none" points="274.2793,-324.5 274.2793,-368.5 " stroke="#000000"/>
<text fill="#000000" font-family="Times,serif" font-size="14.00" text-anchor="middle" x="330.1035" y="-353.3">(None, 3, 32, 32)</text>
<polyline fill="none" points="274.2793,-346.5 385.9277,-346.5 " stroke="#000000"/>
<text fill="#000000" font-family="Times,serif" font-size="14.00" text-anchor="middle" x="330.1035" y="-331.3">(None, 1, 16, 32)</text>
</g>
<!-- 4854925904&#45;&gt;4855178320 -->
<g class="edge" id="edge14">
<title>4854925904-&gt;4855178320</title>
<path d="M196.4639,-405.3664C196.4639,-397.1516 196.4639,-387.6579 196.4639,-378.7252" fill="none" stroke="#000000"/>
<polygon fill="#000000" points="199.964,-378.6068 196.4639,-368.6068 192.964,-378.6069 199.964,-378.6068" stroke="#000000"/>
</g>
<!-- 4850408976 -->
<g class="node" id="node16">
<title>4850408976</title>
<polygon fill="none" points="57.1724,-243.5 57.1724,-287.5 335.7554,-287.5 335.7554,-243.5 57.1724,-243.5" stroke="#000000"/>
<text fill="#000000" font-family="Times,serif" font-size="14.00" text-anchor="middle" x="112.8052" y="-261.3">flatten_1: Flatten</text>
<polyline fill="none" points="168.438,-243.5 168.438,-287.5 " stroke="#000000"/>
<text fill="#000000" font-family="Times,serif" font-size="14.00" text-anchor="middle" x="196.2725" y="-272.3">input:</text>
<polyline fill="none" points="168.438,-265.5 224.1069,-265.5 " stroke="#000000"/>
<text fill="#000000" font-family="Times,serif" font-size="14.00" text-anchor="middle" x="196.2725" y="-250.3">output:</text>
<polyline fill="none" points="224.1069,-243.5 224.1069,-287.5 " stroke="#000000"/>
<text fill="#000000" font-family="Times,serif" font-size="14.00" text-anchor="middle" x="279.9312" y="-272.3">(None, 1, 16, 32)</text>
<polyline fill="none" points="224.1069,-265.5 335.7554,-265.5 " stroke="#000000"/>
<text fill="#000000" font-family="Times,serif" font-size="14.00" text-anchor="middle" x="279.9312" y="-250.3">(None, 512)</text>
</g>
<!-- 4855178320&#45;&gt;4850408976 -->
<g class="edge" id="edge15">
<title>4855178320-&gt;4850408976</title>
<path d="M196.4639,-324.3664C196.4639,-316.1516 196.4639,-306.6579 196.4639,-297.7252" fill="none" stroke="#000000"/>
<polygon fill="#000000" points="199.964,-297.6068 196.4639,-287.6068 192.964,-297.6069 199.964,-297.6068" stroke="#000000"/>
</g>
<!-- 4850405520 -->
<g class="node" id="node17">
<title>4850405520</title>
<polygon fill="none" points="74.6792,-162.5 74.6792,-206.5 318.2485,-206.5 318.2485,-162.5 74.6792,-162.5" stroke="#000000"/>
<text fill="#000000" font-family="Times,serif" font-size="14.00" text-anchor="middle" x="126.8052" y="-180.3">dense_1: Dense</text>
<polyline fill="none" points="178.9312,-162.5 178.9312,-206.5 " stroke="#000000"/>
<text fill="#000000" font-family="Times,serif" font-size="14.00" text-anchor="middle" x="206.7656" y="-191.3">input:</text>
<polyline fill="none" points="178.9312,-184.5 234.6001,-184.5 " stroke="#000000"/>
<text fill="#000000" font-family="Times,serif" font-size="14.00" text-anchor="middle" x="206.7656" y="-169.3">output:</text>
<polyline fill="none" points="234.6001,-162.5 234.6001,-206.5 " stroke="#000000"/>
<text fill="#000000" font-family="Times,serif" font-size="14.00" text-anchor="middle" x="276.4243" y="-191.3">(None, 512)</text>
<polyline fill="none" points="234.6001,-184.5 318.2485,-184.5 " stroke="#000000"/>
<text fill="#000000" font-family="Times,serif" font-size="14.00" text-anchor="middle" x="276.4243" y="-169.3">(None, 512)</text>
</g>
<!-- 4850408976&#45;&gt;4850405520 -->
<g class="edge" id="edge16">
<title>4850408976-&gt;4850405520</title>
<path d="M196.4639,-243.3664C196.4639,-235.1516 196.4639,-225.6579 196.4639,-216.7252" fill="none" stroke="#000000"/>
<polygon fill="#000000" points="199.964,-216.6068 196.4639,-206.6068 192.964,-216.6069 199.964,-216.6068" stroke="#000000"/>
</g>
<!-- 4855686992 -->
<g class="node" id="node18">
<title>4855686992</title>
<polygon fill="none" points="63.0034,-81.5 63.0034,-125.5 329.9243,-125.5 329.9243,-81.5 63.0034,-81.5" stroke="#000000"/>
<text fill="#000000" font-family="Times,serif" font-size="14.00" text-anchor="middle" x="126.8052" y="-99.3">dropout_1: Dropout</text>
<polyline fill="none" points="190.6069,-81.5 190.6069,-125.5 " stroke="#000000"/>
<text fill="#000000" font-family="Times,serif" font-size="14.00" text-anchor="middle" x="218.4414" y="-110.3">input:</text>
<polyline fill="none" points="190.6069,-103.5 246.2759,-103.5 " stroke="#000000"/>
<text fill="#000000" font-family="Times,serif" font-size="14.00" text-anchor="middle" x="218.4414" y="-88.3">output:</text>
<polyline fill="none" points="246.2759,-81.5 246.2759,-125.5 " stroke="#000000"/>
<text fill="#000000" font-family="Times,serif" font-size="14.00" text-anchor="middle" x="288.1001" y="-110.3">(None, 512)</text>
<polyline fill="none" points="246.2759,-103.5 329.9243,-103.5 " stroke="#000000"/>
<text fill="#000000" font-family="Times,serif" font-size="14.00" text-anchor="middle" x="288.1001" y="-88.3">(None, 512)</text>
</g>
<!-- 4850405520&#45;&gt;4855686992 -->
<g class="edge" id="edge17">
<title>4850405520-&gt;4855686992</title>
<path d="M196.4639,-162.3664C196.4639,-154.1516 196.4639,-144.6579 196.4639,-135.7252" fill="none" stroke="#000000"/>
<polygon fill="#000000" points="199.964,-135.6068 196.4639,-125.6068 192.964,-135.6069 199.964,-135.6068" stroke="#000000"/>
</g>
<!-- 4855937680 -->
<g class="node" id="node19">
<title>4855937680</title>
<polygon fill="none" points="74.6792,-.5 74.6792,-44.5 318.2485,-44.5 318.2485,-.5 74.6792,-.5" stroke="#000000"/>
<text fill="#000000" font-family="Times,serif" font-size="14.00" text-anchor="middle" x="126.8052" y="-18.3">dense_2: Dense</text>
<polyline fill="none" points="178.9312,-.5 178.9312,-44.5 " stroke="#000000"/>
<text fill="#000000" font-family="Times,serif" font-size="14.00" text-anchor="middle" x="206.7656" y="-29.3">input:</text>
<polyline fill="none" points="178.9312,-22.5 234.6001,-22.5 " stroke="#000000"/>
<text fill="#000000" font-family="Times,serif" font-size="14.00" text-anchor="middle" x="206.7656" y="-7.3">output:</text>
<polyline fill="none" points="234.6001,-.5 234.6001,-44.5 " stroke="#000000"/>
<text fill="#000000" font-family="Times,serif" font-size="14.00" text-anchor="middle" x="276.4243" y="-29.3">(None, 512)</text>
<polyline fill="none" points="234.6001,-22.5 318.2485,-22.5 " stroke="#000000"/>
<text fill="#000000" font-family="Times,serif" font-size="14.00" text-anchor="middle" x="276.4243" y="-7.3">(None, 1)</text>
</g>
<!-- 4855686992&#45;&gt;4855937680 -->
<g class="edge" id="edge18">
<title>4855686992-&gt;4855937680</title>
<path d="M196.4639,-81.3664C196.4639,-73.1516 196.4639,-63.6579 196.4639,-54.7252" fill="none" stroke="#000000"/>
<polygon fill="#000000" points="199.964,-54.6068 196.4639,-44.6068 192.964,-54.6069 199.964,-54.6068" stroke="#000000"/>
</g>
</g>
</svg>